<svg xmlns="http://www.w3.org/2000/svg" width="891" height="722" viewBox="0 0 891 722">
  <g fill="none" fill-rule="evenodd" stroke="#CCC1AC" transform="rotate(180 445.5 360.5)">
    <line x1="865" x2="572" y1="158" y2="333"/>
    <polyline points="740 428.09 740 35 866 105.91 866 499"/>
    <path d="M864.548606,353.420278 L401.48712,632.123692 L396.773578,87.3125558 C396.510103,56.6031313 412.625277,28.0780915 439.056815,12.4649864 C495.991855,-21.1646641 567.979751,19.3760338 568.784585,85.5215455 C570.071579,191.290499 571.036825,270.617215 571.680322,323.501692 C572.233967,369.00194 573.064436,437.252312 574.171728,528.252809"/>
    <path d="M890.759662,513.855308 L441.744219,257.677588 C416.136017,243.06566 384.738255,242.986985 359.056045,257.470874 C302.461748,289.385104 302.09171,370.798168 358.394601,403.226099 L616.943547,552.151458 C675.83054,586.071126 677.410913,670.524742 619.83293,706.625709 C591.309134,724.509587 555.199549,724.98935 526.213204,707.869081 L0,391"/>
    <line x1="569.439" x2="740" y1="136.863" y2="233"/>
  </g>
</svg>
