<svg xmlns="http://www.w3.org/2000/svg" width="603" height="1115" viewBox="0 0 603 1115">
    <g fill="none" fill-rule="evenodd" stroke="#D21C32">
        <path d="M563 865L388 572M292.91 740H686l-70.91 126H221.196"/>
        <path d="M367.58 864.549L88.876 401.487l544.811-4.713c30.71-.264 59.235 15.851 74.848 42.283 33.63 56.935-6.911 128.923-73.057 129.728l-237.98 2.895-204.75 2.492"/>
        <path d="M83 1115c89.424-161.168 135.8-244.67 139.131-250.508l241.191-422.748a83.787 83.787 0 0 0 .207-82.688c-31.914-56.594-113.327-56.964-145.755-.661L168.849 616.944c-33.92 58.887-118.374 60.467-154.475 2.889-17.884-28.524-18.363-64.633-1.243-93.62L330 0M584.137 569.439L488 740"/>
    </g>
</svg>
