<?xml version="1.0" encoding="UTF-8"?>
<svg width="573px" height="688px" viewBox="0 0 573 688" version="1.1" xmlns="http://www.w3.org/2000/svg" xmlns:xlink="http://www.w3.org/1999/xlink">
    <!-- Generator: sketchtool 61.2 (101010) - https://sketch.com -->
    <title>E51CA552-A608-4B20-9E21-870FC0CC706C</title>
    <desc>Created with sketchtool.</desc>
    <g id="2.-Desktop-Design" stroke="none" stroke-width="1" fill="none" fill-rule="evenodd">
        <g id="05-Malawi-Public-Engagement" transform="translate(-867.000000, -349.000000)" stroke="#D21C32">
            <g id="graphic-elements" transform="translate(1162.109765, 737.500000) scale(-1, -1) rotate(-29.000000) translate(-1162.109765, -737.500000) translate(926.609765, 421.000000)">
                <g id="Group-10" transform="translate(-0.000000, -0.000000)">
                    <line x1="469" y1="158" x2="176" y2="333" id="Stroke-1"></line>
                    <polyline id="Stroke-2" points="344 428.089701 344 35 470 105.910299 470 499.804077"></polyline>
                    <g id="Group-9" transform="translate(-0.000000, -0.000000)">
                        <path d="M470.458858,352.82378 L5.48711992,632.123692 L0.776838866,87.3125558 C0.51010282,56.6031313 16.6252771,28.0780915 43.056815,12.4649864 C99.9918554,-21.1646641 171.979751,19.3760338 172.784585,85.5215455 C174.071579,191.290499 175.036825,270.617215 175.680322,323.501692 C176.233967,369.00194 177.064436,437.252312 178.171728,528.252809 L470.458858,352.82378 Z" id="Stroke-3"></path>
                        <line x1="173.439245" y1="136.862606" x2="344.659465" y2="232.212782" id="Stroke-7"></line>
                    </g>
                </g>
            </g>
        </g>
    </g>
</svg>