<?xml version="1.0" encoding="UTF-8"?>
<svg width="17px" height="23px" viewBox="0 0 17 23" version="1.1" xmlns="http://www.w3.org/2000/svg" xmlns:xlink="http://www.w3.org/1999/xlink">
    <!-- Generator: sketchtool 61.2 (101010) - https://sketch.com -->
    <title>3F012A29-0125-4DA0-823A-2A6AB338F70F</title>
    <desc>Created with sketchtool.</desc>
    <g id="2.-Desktop-Design" stroke="none" stroke-width="1" fill="none" fill-rule="evenodd">
        <g id="07-1-Malawi-Vacancies-Detail" transform="translate(-79.000000, -947.000000)" fill-rule="nonzero" stroke="#D21C32" stroke-width="2">
            <g id="maps-and-flags" transform="translate(80.000000, 948.000000)">
                <path d="M7.5,0 C3.37721774,0 0.0231048387,3.32616196 0.0231048387,7.41454772 C0.0231048387,12.4883622 6.71419355,19.9370185 6.99907258,20.2516327 C7.26665323,20.5471734 7.73383065,20.5466536 8.00092742,20.2516327 C8.28580645,19.9370185 14.9768952,12.4883622 14.9768952,7.41454772 C14.9768952,3.32616196 11.6227419,0 7.5,0 Z" id="Shape"></path>
                <path d="M7.49999403,10.0395677 C6.04037552,10.0395677 4.85292102,8.86199314 4.85292102,7.41455364 C4.85292102,5.96711413 6.04040389,4.78956771 7.49999403,4.78956771 C8.95958416,4.78956771 10.1470387,5.96714227 10.1470387,7.41458178 C10.1470387,8.86202128 8.95958416,10.0395677 7.49999403,10.0395677 Z" id="Path"></path>
            </g>
        </g>
    </g>
</svg>