<svg xmlns="http://www.w3.org/2000/svg" width="864" height="722" viewBox="0 0 864 722">
    <g fill="none" fill-rule="evenodd" stroke="#D21C32">
        <path d="M865 159L572 334M740 429.09V36l126 70.91V500"/>
        <path d="M864.549 354.42L401.487 633.124l-4.713-544.811c-.264-30.71 15.851-59.235 42.283-74.848 56.935-33.63 128.923 6.911 129.728 73.057l2.895 237.98 2.492 204.75"/>
        <path d="M890.76 514.855L441.744 258.678a83.787 83.787 0 0 0-82.688-.207c-56.594 31.914-56.964 113.327-.661 145.755l258.549 148.925c58.887 33.92 60.467 118.374 2.889 154.475-28.524 17.884-64.633 18.363-93.62 1.243L0 392M569.439 137.863L740 234"/>
    </g>
</svg>
