<svg xmlns="http://www.w3.org/2000/svg" width="232" height="383" viewBox="0 0 232 383">
    <g fill="none" fill-rule="evenodd" stroke="#D21C32">
        <path d="M327.256 84.492L172.37 176.968M327.017 187.759L82.234 335.035 79.742 47.139a45.48 45.48 0 0 1 22.352-39.552c30.097-17.771 68.151 3.652 68.577 38.605l1.53 125.757 1.317 108.197"/>
        <path d="M340.873 272.538L103.515 137.165a44.305 44.305 0 0 0-43.711-.109c-29.917 16.865-30.112 59.886-.35 77.022l136.674 78.697c31.13 17.924 31.965 62.552 1.528 81.63a47.608 47.608 0 0 1-49.49.656L0 287M171.017 73.323l90.161 50.802"/>
    </g>
</svg>
