<?xml version="1.0" encoding="UTF-8"?>
<svg width="713px" height="549px" viewBox="0 0 713 549" version="1.1" xmlns="http://www.w3.org/2000/svg" xmlns:xlink="http://www.w3.org/1999/xlink">
    <!-- Generator: sketchtool 61.2 (101010) - https://sketch.com -->
    <title>6FA79E0D-EDA9-4C18-B00E-C7A9DF7B2644</title>
    <desc>Created with sketchtool.</desc>
    <g id="2.-Desktop-Design" stroke="none" stroke-width="1" fill="none" fill-rule="evenodd">
        <g id="08-Malawi-Contact" transform="translate(-727.000000, 0.000000)" stroke="#8E99D3">
            <g id="graphic-elements">
                <g transform="translate(1122.000000, 216.000000) scale(-1, -1) rotate(-90.000000) translate(-1122.000000, -216.000000) translate(521.000000, -179.000000)" id="Group-10">
                    <g transform="translate(0.000000, 0.500000)">
                        <line x1="946.069154" y1="172.901526" x2="625.608735" y2="364.40638" id="Stroke-1"></line>
                        <polyline id="Stroke-2" points="809.353958 468.464319 809.353958 38.3009709 947.162875 115.899065 947.162875 546.062413"></polyline>
                        <g id="Group-9">
                            <path d="M945.575454,386.752565 L439.115121,691.741461 L433.959819,95.5473044 C433.67165,61.9415681 451.297164,30.7262333 480.205907,13.6406023 C542.476988,-23.1607767 621.211703,21.2034545 622.091967,93.5873778 C623.49958,209.331767 624.555289,296.140059 625.259096,354.012253 C625.86463,403.803787 626.772932,478.491088 627.984001,578.074156" id="Stroke-3"></path>
                            <path d="M1202,700.36061 C1039.80335,602.419559 956.115348,551.970743 950.936004,549.014161 C846.982487,489.673248 691.052212,400.661878 483.145179,281.980052 C455.136936,265.990021 420.796526,265.903926 392.707339,281.753841 C330.808937,316.678012 330.404217,405.769424 391.983904,441.255745 L674.764462,604.226769 C739.170436,641.345517 740.898924,733.764246 677.924643,773.27002 C646.727551,792.840588 607.233719,793.365599 575.530729,774.630658 L0,427.87656" id="Stroke-5"></path>
                            <line x1="622.807982" y1="149.770591" x2="809.353958" y2="254.975035" id="Stroke-7"></line>
                        </g>
                    </g>
                </g>
            </g>
        </g>
    </g>
</svg>