<svg xmlns="http://www.w3.org/2000/svg" width="868" height="573" viewBox="0 0 868 573">
    <g fill="none" fill-rule="evenodd" stroke="#8E99D3">
        <path d="M234 563l293-175M359 292.91V686l-126-70.91V222"/>
        <path d="M234.451 367.58L697.513 88.876l4.713 544.811c.264 30.71-15.851 59.235-42.283 74.848-56.935 33.63-128.923-6.911-129.728-73.057l-2.895-237.98-2.492-204.75"/>
        <path d="M0 81c148.298 89.5 224.815 135.6 229.55 138.303l427.706 244.02a83.787 83.787 0 0 0 82.688.206c56.594-31.914 56.964-113.327.661-145.755L482.056 168.849c-58.887-33.92-60.467-118.374-2.889-154.475 28.524-17.884 64.633-18.363 93.62-1.243L1099 330M529.561 584.137L359 488"/>
    </g>
</svg>
