<svg xmlns="http://www.w3.org/2000/svg" xmlns:xlink="http://www.w3.org/1999/xlink" width="13" height="13" viewBox="0 0 13 13">
    <defs>
        <path id="a" d="M12.175 9.467L10.65 8.242c-.35-.275-.85-.3-1.2-.025l-1.3.95c-.15.125-.375.1-.525-.05l-1.95-1.75-1.75-1.95c-.15-.15-.15-.35-.05-.525l.95-1.3c.275-.35.25-.85-.025-1.2L3.575.867A.994.994 0 0 0 2.1.792l-1.3 1.3c-.2.2-.3.475-.3.75.125 2.55 1.275 4.975 2.975 6.675 1.7 1.7 4.125 2.85 6.675 2.975.275.025.55-.1.75-.3l1.3-1.3a.89.89 0 0 0-.025-1.425z"/>
    </defs>
    <g fill="none" fill-rule="evenodd">
        <mask id="b" fill="#fff">
            <use xlink:href="#a"/>
        </mask>
        <use fill="#54698D" xlink:href="#a"/>
        <g fill="#231508" mask="url(#b)">
            <path d="M0 0h13v13H0z"/>
        </g>
    </g>
</svg>
