<svg xmlns="http://www.w3.org/2000/svg" xmlns:xlink="http://www.w3.org/1999/xlink" width="55" height="55" viewBox="0 0 55 55">
    <defs>
        <path id="a" d="M0 0h55v55H0z"/>
    </defs>
    <g fill="none" fill-rule="evenodd">
        <g>
            <mask id="b" fill="#fff">
                <use xlink:href="#a"/>
            </mask>
            <path fill="#DCE0F3" d="M42.85 55h-30.7C5.44 55 0 49.56 0 42.85v-30.7C0 5.44 5.44 0 12.15 0h30.7C49.56 0 55 5.44 55 12.15v30.7C55 49.56 49.56 55 42.85 55" mask="url(#b)"/>
        </g>
        <path fill="#4F5A8F" d="M32.986 22.194v-4.47l6.788 6.788h-4.47a2.32 2.32 0 0 1-2.318-2.318m9.2 2.545l-9.22-9.221a.773.773 0 0 0-.546-.226H16.45a3.868 3.868 0 0 0-3.863 3.863v19.78a.773.773 0 0 0 1.546 0v-19.78a2.32 2.32 0 0 1 2.318-2.318h14.99v5.357a3.868 3.868 0 0 0 3.863 3.864h5.563v12.878a.773.773 0 0 0 1.546 0V25.285a.773.773 0 0 0-.227-.546"/>
        <path fill="#4F5A8F" d="M37.88 38.06H16.554a.773.773 0 0 0 0 1.545H37.88a.773.773 0 0 0 0-1.545M37.88 32.806H16.554a.773.773 0 0 0 0 1.545H37.88a.773.773 0 0 0 0-1.545"/>
    </g>
</svg>
