<svg xmlns="http://www.w3.org/2000/svg" xmlns:xlink="http://www.w3.org/1999/xlink" width="64" height="88" viewBox="0 0 64 88">
    <defs>
        <path id="a" d="M0 .518h47.034v41.548H0z"/>
        <path id="c" d="M.607.518h20.941v41.548H.608z"/>
        <path id="e" d="M.038.206h47.034v41.547H.038z"/>
        <path id="g" d="M0 .207h20.94v41.547H0z"/>
    </defs>
    <g fill="none" fill-rule="evenodd">
        <g transform="translate(0 .105)">
            <mask id="b" fill="#fff">
                <use xlink:href="#a"/>
            </mask>
            <path fill="#000" d="M47.033 12.919c-.127-6.87-5.72-12.4-12.612-12.4-.249 0-.492.022-.736.036-1.22.07-2.391.312-3.494.705a12.653 12.653 0 0 0-6.697 5.584 12.611 12.611 0 0 0-6.652-5.572 12.505 12.505 0 0 0-3.493-.716c-.253-.015-.504-.038-.76-.038C5.636.518-.001 6.16-.001 13.12v28.946h13.35v-27a1.747 1.747 0 1 1 3.493 0v27h13.35v-27a1.747 1.747 0 1 1 3.493 0v27h13.348s.002-29.068 0-29.147" mask="url(#b)"/>
        </g>
        <g transform="translate(42.333 .105)">
            <mask id="d" fill="#fff">
                <use xlink:href="#c"/>
            </mask>
            <path fill="#D21C32" d="M8.2 25.757v16.309h13.348V12.918C21.421 6.05 15.828.518 8.935.518H.607s7.899 2.906 7.47 13.929l.117 11.315.005-.005z" mask="url(#d)"/>
        </g>
        <g transform="translate(16.809 45.598)">
            <mask id="f" fill="#fff">
                <use xlink:href="#e"/>
            </mask>
            <path fill="#289C42" d="M.039 29.353c.128 6.869 5.72 12.4 12.612 12.4.25 0 .492-.022.737-.036 1.22-.07 2.39-.312 3.493-.705a12.65 12.65 0 0 0 6.697-5.584A12.611 12.611 0 0 0 30.23 41c1.102.397 2.273.643 3.493.715.253.015.504.038.76.038 6.953 0 12.59-5.64 12.59-12.6V.205h-13.35v27a1.748 1.748 0 1 1-3.493 0v-27H16.881v27a1.748 1.748 0 1 1-3.493 0v-27H.038v29.147" mask="url(#f)"/>
        </g>
        <g transform="translate(0 45.598)">
            <mask id="h" fill="#fff">
                <use xlink:href="#g"/>
            </mask>
            <path fill="#D21C32" d="M13.349 16.515V.207H-.001v29.146c.13 6.87 5.721 12.4 12.613 12.4h8.329s-7.898-2.905-7.47-13.928l-.117-11.314-.005.004z" mask="url(#h)"/>
        </g>
    </g>
</svg>
