<svg xmlns="http://www.w3.org/2000/svg" xmlns:xlink="http://www.w3.org/1999/xlink" width="780" height="556" viewBox="0 0 780 556">
    <defs>
        <path id="a" d="M0 .369h1008.727v890.426H0z"/>
        <path id="c" d="M.6.364h450.483V890.79H.599z"/>
    </defs>
    <g fill="none" fill-rule="evenodd">
        <g transform="rotate(-15 845.402 2183.474)">
            <mask id="b" fill="#fff">
                <use xlink:href="#a"/>
            </mask>
            <path fill="#F6F2ED" d="M1008.715 266.125C1005.978 118.916 886.041.37 738.213.37c-5.327 0-10.534.494-15.781.788-26.17 1.51-51.283 6.691-74.929 15.106-60.91 21.703-111.685 64.455-143.622 119.669-31.683-55.013-82.139-97.646-142.674-119.416C337.574 8.01 312.46 2.76 286.29 1.184c-5.42-.32-10.801-.815-16.302-.815C120.879.369-.005 121.28-.005 270.439v620.356H286.29V312.136c0-20.688 16.77-37.463 37.465-37.463 20.681 0 37.45 16.775 37.45 37.463v578.659h286.297V312.136c0-20.688 16.77-37.463 37.465-37.463 20.681 0 37.464 16.775 37.464 37.463v578.659h286.283s.027-622.96 0-624.67" mask="url(#b)"/>
        </g>
        <g transform="rotate(-15 386.896 -1299.222)">
            <mask id="d" fill="#fff">
                <use xlink:href="#c"/>
            </mask>
            <path fill="#F6F2ED" d="M163.92 541.265V890.79h287.172V266.12C448.347 118.91 328.03.364 179.749.364H.599s169.91 62.278 160.709 298.518l2.504 242.49.107-.107z" mask="url(#d)"/>
        </g>
    </g>
</svg>
