<svg xmlns="http://www.w3.org/2000/svg" width="30" height="30" viewBox="0 0 30 30">
  <g fill="none" fill-rule="evenodd">
    <path fill="red" d="M0,15 C0,6.71572834 6.71572834,0 15,0 C23.2842717,0 30,6.71572834 30,15 C30,23.2842717 23.2842717,30 15,30 C6.71572834,30 0,23.2842717 0,15 Z"/>
    <path fill="#FFF" d="M22.6656364,11.2957621 C22.4816364,10.5888831 21.9394545,10.032246 21.251,9.84333065 C20.0033636,9.5 15,9.5 15,9.5 C15,9.5 9.99663636,9.5 8.74890909,9.84333065 C8.06045455,10.032246 7.51827273,10.5888831 7.33427273,11.2957621 C7,12.5768992 7,15.25 7,15.25 C7,15.25 7,17.9230081 7.33427273,19.2042379 C7.51827273,19.9111169 8.06045455,20.467754 8.74890909,20.6567621 C9.99663636,21 15,21 15,21 C15,21 20.0033636,21 21.251,20.6567621 C21.9394545,20.467754 22.4816364,19.9111169 22.6656364,19.2042379 C23,17.9230081 23,15.25 23,15.25 C23,15.25 23,12.5768992 22.6656364,11.2957621"/>
    <polygon fill="red" points="13.5 18 13.5 13 17.5 15.5"/>
  </g>
</svg>
