<?xml version="1.0" encoding="UTF-8"?>
<svg width="496px" height="968px" viewBox="0 0 496 968" version="1.1" xmlns="http://www.w3.org/2000/svg" xmlns:xlink="http://www.w3.org/1999/xlink">
    <!-- Generator: sketchtool 61.2 (101010) - https://sketch.com -->
    <title>7F8FE9FF-77E0-4FF2-9896-355FD2601BDB</title>
    <desc>Created with sketchtool.</desc>
    <g id="2.-Desktop-Design" stroke="none" stroke-width="1" fill="none" fill-rule="evenodd">
        <g id="03-Malawi-Research" transform="translate(-944.000000, -220.000000)" stroke="#D21C32">
            <g id="graphic-elements" transform="translate(1257.078125, 703.617188) scale(-1, -1) rotate(-90.000000) translate(-1257.078125, -703.617188) translate(772.578125, 390.117188)">
                <g id="Group-10" transform="translate(0.882812, 0.578125)">
                    <line x1="750.959641" y1="137.181692" x2="496.588341" y2="289.12344" id="Stroke-1"></line>
                    <polyline id="Stroke-2" points="642.439462 371.683984 642.439462 30.3883495 751.827803 91.9554052 751.827803 433.949171"></polyline>
                    <g id="Group-9">
                        <path d="M750.567758,306.853112 L348.555634,548.834163 L344.463519,75.8081275 C344.23478,49.1450211 358.225353,24.3784817 381.172195,10.8225818 C430.601001,-18.3759774 493.098116,16.8230197 493.796842,74.2531033 C494.91416,166.085787 495.752149,234.9603 496.310808,280.876642 C496.791462,320.381712 497.512443,379.639317 498.473751,458.649457" id="Stroke-3"></path>
                        <path d="M968,553.9362 C828.080108,476.295005 755.586325,436.028643 750.51865,433.137115 C668.960127,386.601227 546.622342,316.797394 383.505295,223.725618 C361.273242,211.038978 334.014915,210.970669 311.718611,223.54614 C262.585625,251.255305 262.264372,321.941267 311.144371,350.096446 L535.606595,479.399185 C586.730012,508.849549 588.10203,582.175435 538.115046,613.519687 C513.351786,629.047159 482.002837,629.463707 456.83801,614.59923 L0,339.481276" id="Stroke-5"></path>
                        <line x1="494.365192" y1="118.829392" x2="642.439462" y2="202.299584" id="Stroke-7"></line>
                    </g>
                </g>
            </g>
        </g>
    </g>
</svg>