<?xml version="1.0" encoding="UTF-8"?>
<svg width="13px" height="13px" viewBox="0 0 13 13" version="1.1" xmlns="http://www.w3.org/2000/svg" xmlns:xlink="http://www.w3.org/1999/xlink">
    <!-- Generator: sketchtool 61.2 (101010) - https://sketch.com -->
    <title>4BA86F07-BA72-4333-8AE4-902EC4B74F98</title>
    <desc>Created with sketchtool.</desc>
    <g id="2.-Desktop-Design" stroke="none" stroke-width="1" fill="none" fill-rule="evenodd">
        <g id="08-Malawi-Contact-Error" transform="translate(-1075.000000, -1527.000000)">
            <g id="Group-5-Copy" transform="translate(1055.000000, 1509.000000)">
                <g id="learn-more-button-copy-2">
                    <g id="Group-2" transform="translate(20.000000, 0.000000)">
                        <g id="Group-7">
                            <g id="Group-5" transform="translate(0.000000, 18.000000)">
                                <circle id="Oval" fill="#D21C32" cx="6.5" cy="6.5" r="6.5"></circle>
                                <path d="M6.78493924,7.75189887 L6.78493924,2.88888889 L5.86664497,2.88888889 L5.86664497,7.75189887 L6.78493924,7.75189887 Z M6.3406033,10.1315647 C6.52821181,10.1315647 6.67056387,10.0805483 6.76765951,9.97851562 C6.86475514,9.87648293 6.91330295,9.7497649 6.91330295,9.59836155 C6.91330295,9.44037543 6.86475514,9.30872034 6.76765951,9.20339627 C6.67056387,9.09807219 6.52821181,9.04541016 6.3406033,9.04541016 C6.15299479,9.04541016 6.01228841,9.09807219 5.91848416,9.20339627 C5.8246799,9.30872034 5.77777778,9.44037543 5.77777778,9.59836155 C5.77777778,9.7497649 5.8246799,9.87648293 5.91848416,9.97851562 C6.01228841,10.0805483 6.15299479,10.1315647 6.3406033,10.1315647 Z" id="!" fill="#FFF1F1" fill-rule="nonzero"></path>
                            </g>
                        </g>
                    </g>
                </g>
            </g>
        </g>
    </g>
</svg>